<svg xmlns="http://www.w3.org/2000/svg" xmlns:xlink="http://www.w3.org/1999/xlink" width="49.235" height="49.236" viewBox="0 0 49.235 49.236">
  <defs>
    <clipPath id="clip-path">
      <rect id="Rectangle_5" data-name="Rectangle 5" width="49.236" height="49.236" fill="#fff" stroke="#707070" stroke-width="1"/>
    </clipPath>
  </defs>
  <g id="Mask_Group_1" data-name="Mask Group 1" clip-path="url(#clip-path)">
    <g id="courier" transform="translate(0.808 0.449)">
      <g id="Group_16" data-name="Group 16">
        <g id="Group_24" data-name="Group 24">
          <g id="balloons">
            <path id="Path_132" data-name="Path 132" d="M46.254,13.417A12.227,12.227,0,0,0,34.288,6.848a11.44,11.44,0,0,0-20.956,0,12.1,12.1,0,0,0-4.828.53,12.224,12.224,0,0,0,3.7,23.865c.116,0,.232,0,.347-.007l.353,2.72a.961.961,0,0,0,1.279.767l1.322-.5a6.2,6.2,0,0,1-2.124,7.56.951.951,0,1,0,1.022,1.6,8.049,8.049,0,0,0,2.885-9.837l1.107-.417a.951.951,0,0,0,.453-1.421l-1.183-1.757a12.116,12.116,0,0,0,3.561-2.681l-.6,2.526a.951.951,0,0,0,.926,1.17h1.3V47.386a.951.951,0,1,0,1.9,0V30.973h1.3a.951.951,0,0,0,.926-1.17l-.6-2.527a12.133,12.133,0,0,0,2.663,2.186l-1.516,2.252a.961.961,0,0,0,.458,1.423c.288.112.578.218.866.327l.34.129a7.738,7.738,0,0,0,6.077,8.552.951.951,0,1,0,.393-1.861,5.805,5.805,0,0,1-4.623-5.995l1.154.435a.96.96,0,0,0,1.279-.767l.365-2.819a12.115,12.115,0,0,0,1.544.1A12.22,12.22,0,0,0,46.254,13.417ZM23.81,2.9c4.113,0,6.627,1.617,7.964,5.273a10.932,10.932,0,0,1,.517,2.234,10.65,10.65,0,0,1-.012,2.253c-.046.436-.112.87-.2,1.3a21.066,21.066,0,0,1-2.664,6.757c-1.742,2.825-2.848,3.574-4.879,3.917a4.442,4.442,0,0,1-1.467,0c-2.029-.347-3.131-1.094-4.872-3.916a19.855,19.855,0,0,1-2.916-8.732,9.7,9.7,0,0,1,.5-3.64C17.073,4.6,19.632,2.9,23.81,2.9ZM14.446,31.035a12.225,12.225,0,0,0,1.416-.352l.739,1.1-1.963.741Zm1.492-3.392c-.436.146-.868.3-1.316.41a11.827,11.827,0,0,1-1.353.233,10.245,10.245,0,0,1-5.779-1.1,7.794,7.794,0,0,1-4.18-5.3c-1.648-5.15.353-9.967,5.772-11.7a10.249,10.249,0,0,1,3.13-.493c.162,0,.1-.008.261,0a6.323,6.323,0,0,0-.07,2.69,21.78,21.78,0,0,0,3.178,9.331,11.086,11.086,0,0,0,3.346,3.957,6.741,6.741,0,0,1-2.99,1.968Zm6.821,1.428.356-1.506a6.293,6.293,0,0,0,1.387,0l.356,1.506Zm9.216,1.679-.229,1.771-1.963-.741.98-1.455a12.585,12.585,0,0,0,1.213.424Zm12.248-8.592c-1.632,5.112-5.9,7.071-11.041,5.938a10.87,10.87,0,0,1-2.347-.821,5.558,5.558,0,0,1-2.095-1.521c1.457-1,2.079-2.06,3.3-4.035A30.264,30.264,0,0,0,35,14.071,7.036,7.036,0,0,0,35.239,12,7.619,7.619,0,0,0,35,9.722a9.785,9.785,0,0,1,3.534.468,8.016,8.016,0,0,1,5.03,4.1,10.622,10.622,0,0,1,.659,7.869Z" transform="translate(0 0)" fill="#fff"/>
          </g>
        </g>
      </g>
    </g>
  </g>
</svg>
