<svg xmlns="http://www.w3.org/2000/svg" xmlns:xlink="http://www.w3.org/1999/xlink" width="49.235" height="49.236" viewBox="0 0 49.235 49.236">
  <defs>
    <clipPath id="clip-path">
      <rect id="Rectangle_5" data-name="Rectangle 5" width="49.236" height="49.236" fill="#fff" stroke="#707070" stroke-width="1"/>
    </clipPath>
  </defs>
  <g id="Mask_Group_1" data-name="Mask Group 1" clip-path="url(#clip-path)">
    <g id="courier" transform="translate(0.817 0.817)">
      <g id="Group_16" data-name="Group 16">
        <g id="Group_18" data-name="Group 18">
          <path id="plunger" d="M40.459,1.226,21.765,19.92A4.184,4.184,0,0,0,17,20.739l-.508.509A12.61,12.61,0,0,0,6.037,23.893,4.183,4.183,0,0,0,1.224,30.6L17,46.378a4.183,4.183,0,0,0,6.707-4.813,12.611,12.611,0,0,0,2.645-10.456l.509-.508a4.191,4.191,0,0,0,.816-4.761l18.7-18.7a4.184,4.184,0,1,0-5.917-5.917ZM20.946,44.406a1.4,1.4,0,0,1-1.972,0L3.2,28.628a1.395,1.395,0,0,1,1.972-1.972L20.946,42.433h0a1.394,1.394,0,0,1,0,1.972Zm3.944-15.778-1.055,1.055a1.4,1.4,0,0,0-.361,1.346A9.808,9.808,0,0,1,21.86,39.4L8.2,25.742a9.807,9.807,0,0,1,8.374-1.614,1.4,1.4,0,0,0,1.346-.361l1.055-1.055a1.394,1.394,0,0,1,1.972,0l3.944,3.944a1.4,1.4,0,0,1,0,1.972ZM44.4,5.171,25.877,23.7,23.9,21.725,42.431,3.2A1.394,1.394,0,0,1,44.4,5.171Zm0,0" transform="translate(0 0)" fill="#fff"/>
        </g>
      </g>
    </g>
  </g>
</svg>
