<svg xmlns="http://www.w3.org/2000/svg" xmlns:xlink="http://www.w3.org/1999/xlink" width="49.235" height="49.236" viewBox="0 0 49.235 49.236">
  <defs>
    <clipPath id="clip-path">
      <rect id="Rectangle_5" data-name="Rectangle 5" width="49.236" height="49.236" fill="#fff" stroke="#707070" stroke-width="1"/>
    </clipPath>
  </defs>
  <g id="Mask_Group_1" data-name="Mask Group 1" clip-path="url(#clip-path)">
    <g id="courier" transform="translate(0.572 0.608)">
      <g id="Group_16" data-name="Group 16">
        <g id="Group_23" data-name="Group 23">
          <g id="plug">
            <g id="Group_22" data-name="Group 22">
              <path id="Path_131" data-name="Path 131" d="M45.708,13.249A21.582,21.582,0,0,0,34.384,2.207,24.6,24.6,0,0,0,10.8,4.013,24.041,24.041,0,0,0,22.122,48.042a2.379,2.379,0,0,0,.264.01,3.376,3.376,0,0,0,2.3-.908A3.473,3.473,0,0,0,25.8,44.606V37.2a1.616,1.616,0,0,0-.029-.312,1.616,1.616,0,0,0,.029-.312,1.762,1.762,0,0,0-1.757-1.757,8.087,8.087,0,0,1-8.083-8.083V21.4H32.128v5.33a8.112,8.112,0,0,1-2.587,5.926,1.755,1.755,0,0,0,2.382,2.577,11.623,11.623,0,0,0,3.71-8.5V19.643a1.762,1.762,0,0,0-1.757-1.757H30.049v-5.76a1.757,1.757,0,1,0-3.515,0v5.76h-5v-5.76a1.757,1.757,0,0,0-3.515,0v5.76H14.195a1.762,1.762,0,0,0-1.757,1.757v7.088A11.631,11.631,0,0,0,22.288,38.2v6.336A20.526,20.526,0,0,1,12.74,6.952a21.155,21.155,0,0,1,20.267-1.5A18.037,18.037,0,0,1,42.5,14.693c3.964,8.874,2.089,18.578-4.784,24.709a1.756,1.756,0,1,0,2.343,2.616,23.919,23.919,0,0,0,7.459-12.672A25.579,25.579,0,0,0,45.708,13.249Z" transform="translate(0 -0.033)" fill="#fff"/>
            </g>
          </g>
        </g>
      </g>
    </g>
  </g>
</svg>
