<svg xmlns="http://www.w3.org/2000/svg" xmlns:xlink="http://www.w3.org/1999/xlink" width="49.235" height="49.236" viewBox="0 0 49.235 49.236">
  <defs>
    <clipPath id="clip-path">
      <rect width="49.236" height="49.236" fill="none"/>
    </clipPath>
    <clipPath id="clip-path-2">
      <rect id="Rectangle_5" data-name="Rectangle 5" width="49.236" height="49.236" fill="#fff" stroke="#707070" stroke-width="1"/>
    </clipPath>
  </defs>
  <g id="Repeat_Grid_5" data-name="Repeat Grid 5" clip-path="url(#clip-path)">
    <g transform="translate(0 -1.407)">
      <g id="Mask_Group_1" data-name="Mask Group 1" transform="translate(0 1.407)" clip-path="url(#clip-path-2)">
        <g id="courier" transform="translate(2.723 2.723)">
          <g id="Group_16" data-name="Group 16" transform="translate(0 0)">
            <g id="Group_26" data-name="Group 26">
              <g id="user">
                <g id="Group_25" data-name="Group 25">
                  <path id="Path_133" data-name="Path 133" d="M37.377,28.307a21.811,21.811,0,0,0-8.32-5.219,12.658,12.658,0,1,0-14.324,0A21.929,21.929,0,0,0,0,43.789H3.421a18.474,18.474,0,0,1,36.947,0h3.421A21.752,21.752,0,0,0,37.377,28.307ZM21.895,21.895a9.237,9.237,0,1,1,9.237-9.237A9.247,9.247,0,0,1,21.895,21.895Z" fill="#fff"/>
                </g>
              </g>
            </g>
          </g>
        </g>
      </g>
    </g>
  </g>
</svg>
