<svg xmlns="http://www.w3.org/2000/svg" viewBox="0 0 16.529 18.39">
  <defs>
    <style>
      .cls-1 {
        fill: #9fa9bc;
      }
    </style>
  </defs>
  <path id="alarm" class="cls-1" d="M123.748,77.075c0-.05-.065-.105-.109-.143-.4-.328-.832-.618-1.2-.981a4.4,4.4,0,0,1-1.4-2.917c-.05-.8-.044-1.6-.08-2.4a11.743,11.743,0,0,0-.456-2.846,4.826,4.826,0,0,0-3.516-3.663c-.05-.013-.109-.124-.111-.187a1.436,1.436,0,0,0-1.179-1.427,1.361,1.361,0,0,0-1.5.973,1.953,1.953,0,0,0-.063.3.634.634,0,0,1-.105.33l-.061.019a4.483,4.483,0,0,0-2.97,2.377,8.388,8.388,0,0,0-.8,2.541,20.7,20.7,0,0,0-.214,3.5,4.517,4.517,0,0,1-.807,2.646,6.173,6.173,0,0,1-1.789,1.707c-.061.038-.151.107-.151.162-.013.456-.006.914-.006,1.372h16.528C123.752,77.977,123.756,77.525,123.748,77.075ZM118.1,79.318h-5.223c-.164,0-.24.124-.168.282l.452,1a.51.51,0,0,0,.42.282h3.825a.5.5,0,0,0,.418-.282l.443-1C118.338,79.446,118.26,79.318,118.1,79.318Z" transform="translate(-107.225 -62.496)"/>
</svg>
