<svg xmlns="http://www.w3.org/2000/svg" width="20.027" height="19.977" viewBox="0 0 20.027 19.977">
  <g id="data2" transform="translate(0 0)">
    <g id="calendar">
      <g id="Group_5" data-name="Group 5">
        <g id="Group_4" data-name="Group 4">
          <path id="Path_2" data-name="Path 2" d="M17.68,1.561h-.939V0H15.177V1.561H4.85V0H3.286V1.561H2.347A2.347,2.347,0,0,0,0,3.9V17.636a2.347,2.347,0,0,0,2.347,2.341H17.68a2.347,2.347,0,0,0,2.347-2.341V3.9A2.347,2.347,0,0,0,17.68,1.561Zm.782,16.075a.782.782,0,0,1-.782.78H2.347a.782.782,0,0,1-.782-.78V7.335h16.9Zm0-11.862H1.565V3.9a.782.782,0,0,1,.782-.78h.939V4.682H4.85V3.121H15.177V4.682h1.565V3.121h.939a.782.782,0,0,1,.782.78Z" fill="#9fa9bc"/>
        </g>
      </g>
      <g id="Group_7" data-name="Group 7" transform="translate(2.628 9.062)">
        <g id="Group_6" data-name="Group 6">
          <rect id="Rectangle_5" data-name="Rectangle 5" width="1.383" height="1.38" fill="#9fa9bc"/>
        </g>
      </g>
      <g id="Group_9" data-name="Group 9" transform="translate(6.162 9.062)">
        <g id="Group_8" data-name="Group 8">
          <rect id="Rectangle_6" data-name="Rectangle 6" width="1.383" height="1.38" fill="#9fa9bc"/>
        </g>
      </g>
      <g id="Group_11" data-name="Group 11" transform="translate(9.322 9.062)">
        <g id="Group_10" data-name="Group 10">
          <rect id="Rectangle_7" data-name="Rectangle 7" width="1.383" height="1.38" fill="#9fa9bc"/>
        </g>
      </g>
      <g id="Group_13" data-name="Group 13" transform="translate(12.482 9.062)">
        <g id="Group_12" data-name="Group 12">
          <rect id="Rectangle_8" data-name="Rectangle 8" width="1.383" height="1.38" fill="#9fa9bc"/>
        </g>
      </g>
      <g id="Group_15" data-name="Group 15" transform="translate(16.016 9.062)">
        <g id="Group_14" data-name="Group 14">
          <rect id="Rectangle_9" data-name="Rectangle 9" width="1.383" height="1.38" fill="#9fa9bc"/>
        </g>
      </g>
      <g id="Group_17" data-name="Group 17" transform="translate(2.628 12.214)">
        <g id="Group_16" data-name="Group 16">
          <rect id="Rectangle_10" data-name="Rectangle 10" width="1.383" height="1.38" fill="#9fa9bc"/>
        </g>
      </g>
      <g id="Group_19" data-name="Group 19" transform="translate(6.162 12.214)">
        <g id="Group_18" data-name="Group 18">
          <rect id="Rectangle_11" data-name="Rectangle 11" width="1.383" height="1.38" fill="#9fa9bc"/>
        </g>
      </g>
      <g id="Group_21" data-name="Group 21" transform="translate(9.322 12.214)">
        <g id="Group_20" data-name="Group 20">
          <rect id="Rectangle_12" data-name="Rectangle 12" width="1.383" height="1.38" fill="#9fa9bc"/>
        </g>
      </g>
      <g id="Group_23" data-name="Group 23" transform="translate(12.482 12.214)">
        <g id="Group_22" data-name="Group 22">
          <rect id="Rectangle_13" data-name="Rectangle 13" width="1.383" height="1.38" fill="#9fa9bc"/>
        </g>
      </g>
      <g id="Group_25" data-name="Group 25" transform="translate(2.628 15.366)">
        <g id="Group_24" data-name="Group 24">
          <rect id="Rectangle_14" data-name="Rectangle 14" width="1.383" height="1.38" fill="#9fa9bc"/>
        </g>
      </g>
      <g id="Group_27" data-name="Group 27" transform="translate(6.162 15.366)">
        <g id="Group_26" data-name="Group 26">
          <rect id="Rectangle_15" data-name="Rectangle 15" width="1.383" height="1.38" fill="#9fa9bc"/>
        </g>
      </g>
      <g id="Group_29" data-name="Group 29" transform="translate(9.322 15.366)">
        <g id="Group_28" data-name="Group 28">
          <rect id="Rectangle_16" data-name="Rectangle 16" width="1.383" height="1.38" fill="#9fa9bc"/>
        </g>
      </g>
      <g id="Group_31" data-name="Group 31" transform="translate(12.482 15.366)">
        <g id="Group_30" data-name="Group 30">
          <rect id="Rectangle_17" data-name="Rectangle 17" width="1.383" height="1.38" fill="#9fa9bc"/>
        </g>
      </g>
      <g id="Group_33" data-name="Group 33" transform="translate(16.016 12.214)">
        <g id="Group_32" data-name="Group 32">
          <rect id="Rectangle_18" data-name="Rectangle 18" width="1.383" height="1.38" fill="#9fa9bc"/>
        </g>
      </g>
    </g>
  </g>
</svg>
