<svg xmlns="http://www.w3.org/2000/svg" width="22.244" height="14.299" viewBox="0 0 22.244 14.299">
  <g id="glaz" transform="translate(0 -91.365)">
    <path id="Path_242" data-name="Path 242" d="M22,97.658a13.257,13.257,0,0,0-4.674-4.568,12,12,0,0,0-12.4,0A13.254,13.254,0,0,0,.248,97.658a1.6,1.6,0,0,0,0,1.713,13.251,13.251,0,0,0,4.673,4.568,12.023,12.023,0,0,0,12.4.006A13.169,13.169,0,0,0,22,99.371a1.6,1.6,0,0,0,0-1.713ZM8.459,94.263a3.632,3.632,0,0,1,2.663-1.111.6.6,0,1,1,0,1.192A2.585,2.585,0,0,0,8.54,96.926a.6.6,0,1,1-1.192,0A3.633,3.633,0,0,1,8.459,94.263Zm8.056,8.3a10.4,10.4,0,0,1-10.787,0,12.812,12.812,0,0,1-4.14-4.053,12.2,12.2,0,0,1,4.729-4.382,5.424,5.424,0,0,0-.757,2.793,5.356,5.356,0,0,0,1.632,3.929,5.355,5.355,0,0,0,3.929,1.632,5.356,5.356,0,0,0,3.929-1.632,5.355,5.355,0,0,0,1.632-3.929,5.424,5.424,0,0,0-.757-2.793,12.2,12.2,0,0,1,4.729,4.382A12.809,12.809,0,0,1,16.515,102.568Z" transform="translate(0)" fill="#bec6d1"/>
  </g>
</svg>
