<svg xmlns="http://www.w3.org/2000/svg" width="22.243" height="16.683" viewBox="0 0 22.243 16.683">
  <g id="glazactions" transform="translate(0 0)">
    <path id="Path_239" data-name="Path 239" d="M304.091,199.482a5.419,5.419,0,0,0,.981-3.147,5.966,5.966,0,0,0-.1-1.043l-3.475,6.231A5.468,5.468,0,0,0,304.091,199.482Z" transform="translate(-288.389 -189.583)" fill="#ff1743"/>
    <path id="Path_240" data-name="Path 240" d="M16.211,65.265a.308.308,0,0,0,.012-.112.38.38,0,0,0-.2-.335q-.037-.025-.242-.143t-.391-.23q-.186-.112-.41-.23t-.385-.192a.67.67,0,0,0-.224-.074.389.389,0,0,0-.348.2l-.67,1.2a12.152,12.152,0,0,0-2.234-.211,11.761,11.761,0,0,0-6.157,1.688A14.476,14.476,0,0,0,.248,71.434a1.6,1.6,0,0,0,0,1.713,14.815,14.815,0,0,0,2.588,3.041,12.846,12.846,0,0,0,3.271,2.148,4.635,4.635,0,0,0-.546,1.08.389.389,0,0,0,.2.347,10.4,10.4,0,0,0,1.663.869.389.389,0,0,0,.347-.2l.608-1.1q1.316-2.346,3.923-7.038T16.211,65.265ZM6.889,76.946a12.233,12.233,0,0,1-5.3-4.655,12.2,12.2,0,0,1,4.729-4.382A5.548,5.548,0,0,0,7.857,75.2Zm4.655-9a.575.575,0,0,1-.422.174A2.585,2.585,0,0,0,8.54,70.7a.6.6,0,1,1-1.192,0,3.793,3.793,0,0,1,3.773-3.774.6.6,0,0,1,.423,1.018Z" transform="translate(0 -63.949)" fill="#ff1743"/>
    <path id="Path_241" data-name="Path 241" d="M266.688,144.083a12.313,12.313,0,0,0-1.794-2.284,14.7,14.7,0,0,0-2.265-1.9l-.782,1.39a12.71,12.71,0,0,1,3.5,3.649,12.8,12.8,0,0,1-3.742,3.811,10.3,10.3,0,0,1-4.872,1.7l-.919,1.639a11.859,11.859,0,0,0,5.207-1.179,13.377,13.377,0,0,0,4.314-3.314,13.964,13.964,0,0,0,1.353-1.8,1.6,1.6,0,0,0,0-1.713Z" transform="translate(-244.693 -136.598)" fill="#ff1743"/>
  </g>
</svg>
