<svg id="Group_108" data-name="Group 108" xmlns="http://www.w3.org/2000/svg" viewBox="0 0 30 30">
  <defs>
    <style>
      .cls-1, .cls-4 {
        fill: none;
      }

      .cls-1 {
        stroke: #0061ff;
        stroke-width: 2px;
      }

      .cls-2 {
        fill: #0061ff;
      }

      .cls-3 {
        stroke: none;
      }
    </style>
  </defs>
  <g id="Ellipse_8" data-name="Ellipse 8" class="cls-1">
    <circle class="cls-3" cx="15" cy="15" r="15"/>
    <circle class="cls-4" cx="15" cy="15" r="14"/>
  </g>
  <g id="call-answer" transform="translate(9 9)">
    <g id="Group_13" data-name="Group 13">
      <g id="Group_12" data-name="Group 12" transform="translate(0 0)">
        <path id="Path_125" data-name="Path 125" class="cls-2" d="M11.932,10.026,10.047,8.141a.983.983,0,0,0-1.386.026l-.95.949-.187-.1A9.451,9.451,0,0,1,5.24,7.36,9.5,9.5,0,0,1,3.584,5.072c-.035-.064-.069-.125-.1-.183l.637-.636.313-.314a.982.982,0,0,0,.025-1.386L2.573.667A.982.982,0,0,0,1.187.693l-.531.534.015.014a3.072,3.072,0,0,0-.438.772A3.2,3.2,0,0,0,.038,2.8C-.211,4.861.732,6.747,3.291,9.306c3.537,3.537,6.388,3.27,6.511,3.257a3.185,3.185,0,0,0,.785-.2,3.062,3.062,0,0,0,.769-.436l.012.01.538-.527A.984.984,0,0,0,11.932,10.026Z" transform="translate(0 -0.394)"/>
      </g>
    </g>
  </g>
</svg>
