<svg xmlns="http://www.w3.org/2000/svg" width="22.729" height="27.006" viewBox="0 0 22.729 27.006">
  <g id="iconp" transform="translate(228.093 78)">
    <g id="Group_141" data-name="Group 141" transform="translate(33.908 0)">
      <path id="Path_164" data-name="Path 164" d="M56.608,6.951c-.032-.71-.032-1.389-.032-2.067a.952.952,0,0,0-.969-.969A12.976,12.976,0,0,1,45.951.266a1,1,0,0,0-1.356,0,12.976,12.976,0,0,1-9.656,3.649.952.952,0,0,0-.969.969c0,.678,0,1.356-.032,2.067-.129,6.782-.323,16.083,11.013,19.99l.323.065.323-.065C56.9,23.034,56.737,13.766,56.608,6.951ZM44.5,16.349a1.042,1.042,0,0,1-.678.258h-.032a.909.909,0,0,1-.678-.323l-3-3.326a.849.849,0,0,1,.125-1.292.872.872,0,0,1,1.328,0l2.358,2.616,5.232-4.973a.9.9,0,0,1,1.217.142,1,1,0,0,1,.107,1.279Z" transform="translate(-295.908 -78)" fill="#21d0c3"/>
    </g>
  </g>
</svg>
