<svg xmlns="http://www.w3.org/2000/svg" width="15.999" height="16" viewBox="0 0 15.999 16">
  <g id="logout" transform="translate(-0.014)">
    <g id="Group_244" data-name="Group 244" transform="translate(0.014)">
      <g id="Group_243" data-name="Group 243" transform="translate(0)">
        <path id="Path_225" data-name="Path 225" d="M305.3,151.751a.674.674,0,0,0-.145-.217l-2-2a.667.667,0,1,0-.943.943l.862.862h-3.724a.667.667,0,0,0,0,1.333h3.724l-.862.862a.667.667,0,1,0,.943.943l2-2a.66.66,0,0,0,.145-.217A.667.667,0,0,0,305.3,151.751Z" transform="translate(-289.347 -144.672)" fill="#9fa9bc"/>
        <path id="Path_226" data-name="Path 226" d="M11.347,9.333A.666.666,0,0,0,10.68,10v3.333H8.014V2.667a.667.667,0,0,0-.475-.639L5.223,1.333H10.68V4.667a.667.667,0,1,0,1.333,0v-4A.666.666,0,0,0,11.347,0H.681A.594.594,0,0,0,.612.013a.658.658,0,0,0-.283.1C.315.121.3.121.283.132S.275.143.27.147A.66.66,0,0,0,.093.358.544.544,0,0,0,.074.414.632.632,0,0,0,.021.57a.415.415,0,0,0,0,.058C.023.641.014.653.014.667V14a.666.666,0,0,0,.536.653l6.666,1.333A.62.62,0,0,0,7.347,16a.667.667,0,0,0,.667-.667v-.667h3.333A.666.666,0,0,0,12.014,14V10A.666.666,0,0,0,11.347,9.333Z" transform="translate(-0.014)" fill="#9fa9bc"/>
      </g>
    </g>
  </g>
</svg>
