<svg xmlns="http://www.w3.org/2000/svg" width="15" height="19.105" viewBox="0 0 15 19.105">
  <path id="micro" d="M15,7.895a7.717,7.717,0,0,1-1.737,4.895,7.841,7.841,0,0,1-4.579,2.526v3.316c0,.158-.017.239-.158.316a.551.551,0,0,1-.316.158H6.9a.54.54,0,0,1-.453-.158.393.393,0,0,1-.133-.316V15.316a7.841,7.841,0,0,1-4.579-2.526A7.717,7.717,0,0,1,0,7.895a1.206,1.206,0,0,1,.316-.789,1.206,1.206,0,0,1,.789-.316,1.206,1.206,0,0,1,.789.316.868.868,0,0,1,.474.789,4.572,4.572,0,0,0,1.579,3.632,5.14,5.14,0,0,0,3.632,1.579,4.572,4.572,0,0,0,3.632-1.579,5,5,0,0,0,1.421-3.632,1.117,1.117,0,0,1,1.895-.789A.868.868,0,0,1,15,7.895Zm-11.053,0V3.474A3.142,3.142,0,0,1,5.053.947,3.334,3.334,0,0,1,7.579,0a2.944,2.944,0,0,1,2.526,1.105,3.213,3.213,0,0,1,.947,2.368V7.895a3.142,3.142,0,0,1-1.105,2.526,3.213,3.213,0,0,1-2.368.947,3.334,3.334,0,0,1-2.526-.947A3.142,3.142,0,0,1,3.947,7.895Z" transform="translate(0)" fill="#fff"/>
</svg>
