<svg xmlns="http://www.w3.org/2000/svg" xmlns:xlink="http://www.w3.org/1999/xlink" width="16" height="16" viewBox="0 0 16 16">
  <defs>
    <clipPath id="clip-path">
      <rect id="Rectangle_81" data-name="Rectangle 81" width="16" height="16" transform="translate(20 454)" fill="#fff" stroke="#707070" stroke-width="1"/>
    </clipPath>
  </defs>
  <g id="sms-left" transform="translate(-20 -454)" clip-path="url(#clip-path)">
    <g id="envelope" transform="translate(20 455.912)">
      <g id="Group_158" data-name="Group 158" transform="translate(0 0)">
        <path id="Path_184" data-name="Path 184" d="M14.047,5.258H1.957A1.958,1.958,0,0,0,0,7.214v8.263a1.958,1.958,0,0,0,1.957,1.957H14.043A1.958,1.958,0,0,0,16,15.477V7.217A1.956,1.956,0,0,0,14.047,5.258Zm1.063,10.22a1.064,1.064,0,0,1-1.063,1.063H1.957A1.064,1.064,0,0,1,.894,15.477V7.217A1.064,1.064,0,0,1,1.957,6.155H14.043a1.064,1.064,0,0,1,1.063,1.063v8.26Z" transform="translate(0 -5.258)" fill="#0061ff"/>
        <path id="Path_185" data-name="Path 185" d="M13.321,14.207,17.234,10.7a.448.448,0,1,0-.6-.665l-5.4,4.843-1.053-.94s-.007-.007-.007-.01a.662.662,0,0,0-.073-.063L5.822,10.029a.448.448,0,1,0-.6.669l3.959,3.539L5.243,17.928a.449.449,0,0,0-.02.632.457.457,0,0,0,.328.142.448.448,0,0,0,.3-.119l4-3.744,1.086.97a.446.446,0,0,0,.6,0l1.116-1,3.979,3.781a.448.448,0,0,0,.632-.017.449.449,0,0,0-.017-.632Z" transform="translate(-3.23 -8.221)" fill="#0061ff"/>
      </g>
    </g>
  </g>
</svg>
