<svg xmlns="http://www.w3.org/2000/svg" xmlns:xlink="http://www.w3.org/1999/xlink" width="24" height="24" viewBox="0 0 24 24">
  <defs>
    <clipPath id="clip-path">
      <rect id="Rectangle_76" data-name="Rectangle 76" width="24" height="24" fill="#fff" stroke="#707070" stroke-width="1"/>
    </clipPath>
  </defs>
  <g id="summ" clip-path="url(#clip-path)">
    <g id="money" transform="translate(0)">
      <g id="Group_151" data-name="Group 151" transform="translate(3.187 21.188)">
        <g id="Group_150" data-name="Group 150">
          <path id="Path_180" data-name="Path 180" d="M3.988,21.325a.468.468,0,1,0,.137.331A.472.472,0,0,0,3.988,21.325Z" transform="translate(-3.188 -21.188)" fill="#9fa9bc"/>
        </g>
      </g>
      <g id="Group_153" data-name="Group 153" transform="translate(21.208 8.438)">
        <g id="Group_152" data-name="Group 152">
          <path id="Path_181" data-name="Path 181" d="M22.009,8.575a.467.467,0,1,0,.138.331A.471.471,0,0,0,22.009,8.575Z" transform="translate(-21.209 -8.438)" fill="#9fa9bc"/>
        </g>
      </g>
      <g id="Group_155" data-name="Group 155">
        <g id="Group_154" data-name="Group 154">
          <path id="Path_182" data-name="Path 182" d="M23.862.137A.469.469,0,0,0,23.531,0H12a.469.469,0,0,0-.469.469V1.81L7.088,3a.469.469,0,0,0-.331.574l2.3,8.594L7.067,14.161a1.406,1.406,0,0,0-1.161-.614h-4.5A1.408,1.408,0,0,0,0,14.953v7.64A1.408,1.408,0,0,0,1.407,24h4.5a1.409,1.409,0,0,0,1.365-1.068l.557.486A2.362,2.362,0,0,0,9.381,24h14.15A.469.469,0,0,0,24,23.531V.469A.469.469,0,0,0,23.862.137ZM6.375,22.594a.469.469,0,0,1-.469.469h-4.5a.469.469,0,0,1-.469-.469v-7.64a.469.469,0,0,1,.469-.469H3.188v5.4a.469.469,0,0,0,.937,0v-5.4H5.906a.469.469,0,0,1,.469.469v7.64ZM7.783,3.785l3.748-1V4.517l-.314.084a.469.469,0,0,0-.331.574,1.264,1.264,0,0,1-.892,1.546.469.469,0,0,0-.331.575l1.827,6.766h-.941l-.485-1.9A.468.468,0,0,0,9.985,12Zm3.748,2.882v3.955l-.855-3.166A2.2,2.2,0,0,0,11.531,6.667Zm6.734,16.4H9.381a1.424,1.424,0,0,1-.936-.351l-1.132-.987V15.241l2.046-2.046.371,1.452a.469.469,0,0,0,.454.353H19.4a.656.656,0,0,1,0,1.312H14.678a.469.469,0,1,0,0,.937h6.189a.656.656,0,1,1,0,1.312H14.678a.469.469,0,1,0,0,.937h5.186a.656.656,0,0,1,0,1.312H14.678a.469.469,0,1,0,0,.937h3.587a.656.656,0,1,1,0,1.312Zm4.8,0H19.717a1.588,1.588,0,0,0,0-1.312h.147a1.593,1.593,0,0,0,1.425-2.307,1.592,1.592,0,0,0,.858-2.486V11.016a.469.469,0,1,0-.937,0V16.35a1.594,1.594,0,0,0-.342-.037h-.015a1.593,1.593,0,0,0-1.452-2.25h-.754a2.243,2.243,0,1,0-1.762,0H14.322V5.15A2.207,2.207,0,0,0,16,3.469h3.526A2.207,2.207,0,0,0,21.209,5.15V6.607a.469.469,0,1,0,.937,0V4.731a.469.469,0,0,0-.469-.469A1.263,1.263,0,0,1,20.416,3a.469.469,0,0,0-.469-.469H15.584A.469.469,0,0,0,15.115,3a1.263,1.263,0,0,1-1.262,1.262.469.469,0,0,0-.469.469v9.331h-.916V.938H23.062Zm-5.3-9.757A1.306,1.306,0,1,1,19.071,12,1.307,1.307,0,0,1,17.765,13.306Z" transform="translate(0)" fill="#9fa9bc"/>
        </g>
      </g>
    </g>
  </g>
</svg>
