<svg xmlns="http://www.w3.org/2000/svg" viewBox="0 0 22.244 16.881">
  <defs>
    <style>
      .cls-1 {
        fill: #9fa9bc;
      }
    </style>
  </defs>
  <path id="ui-chat" class="cls-1" d="M7.457,129.875a4.248,4.248,0,0,1,3.174-3.432,4.126,4.126,0,0,0,1.628-1.017,4.96,4.96,0,0,1,6.075-.378,6.1,6.1,0,0,0-2.887-1.893,4.913,4.913,0,0,1-1.937-1.186c-2.282-2.353-8.03-1.96-8.791,2.051-2.193.327-4.146,1.143-4.616,3.57-.494,2.558,1.128,3.951,3.557,4.985-.676,1.615-1.319,3.145-1.98,4.72A9.725,9.725,0,0,0,6.83,134.9a1.991,1.991,0,0,1,1.25-.6,11.783,11.783,0,0,0,2.182.036c-.182-.118-.365-.236-.547-.363C8.224,132.929,7.3,131.748,7.457,129.875ZM21.084,137.4c-.467-1.13-.919-2.227-1.4-3.386,1.713-.743,2.858-1.742,2.509-3.575-.331-1.742-1.708-2.327-3.257-2.563-.536-2.874-4.591-3.159-6.2-1.47a3.445,3.445,0,0,1-1.368.852,3.559,3.559,0,0,0-2.658,2.878,3.607,3.607,0,0,0,1.891,3.437,8.431,8.431,0,0,0,5.966,1.679,1.4,1.4,0,0,1,.881.429A6.816,6.816,0,0,0,21.084,137.4Z" transform="translate(-0.014 -120.519)"/>
</svg>
