<svg xmlns="http://www.w3.org/2000/svg" viewBox="0 0 71.987 91.67">
  <defs>
    <style>
      .cls-1 {
        fill: #fff;
      }
    </style>
  </defs>
  <g id="certificate" transform="translate(0)">
    <path id="Path_138" data-name="Path 138" class="cls-1" d="M86.339,176.67h31.617a1.343,1.343,0,1,0,0-2.686H86.339a1.343,1.343,0,1,0,0,2.686Zm0,0" transform="translate(-69.778 -142.833)"/>
    <path id="Path_139" data-name="Path 139" class="cls-1" d="M86.339,211.9h31.617a1.343,1.343,0,0,0,0-2.686H86.339a1.343,1.343,0,1,0,0,2.686Zm0,0" transform="translate(-69.778 -171.76)"/>
    <path id="Path_140" data-name="Path 140" class="cls-1" d="M133.007,141.436h16.711a1.343,1.343,0,0,0,0-2.686H133.007a1.343,1.343,0,0,0,0,2.686Zm0,0" transform="translate(-108.09 -113.908)"/>
    <path id="Path_141" data-name="Path 141" class="cls-1" d="M149.718,314.918H133.007a1.343,1.343,0,1,0,0,2.686h16.711a1.343,1.343,0,0,0,0-2.686Zm0,0" transform="translate(-108.09 -258.534)"/>
    <path id="Path_142" data-name="Path 142" class="cls-1" d="M86.339,247.139h31.617a1.343,1.343,0,1,0,0-2.686H86.339a1.343,1.343,0,1,0,0,2.686Zm0,0" transform="translate(-69.778 -200.685)"/>
    <path id="Path_143" data-name="Path 143" class="cls-1" d="M119.3,281.027a1.343,1.343,0,0,0-1.343-1.343H86.339a1.343,1.343,0,0,0,0,2.686h31.617A1.343,1.343,0,0,0,119.3,281.027Zm0,0" transform="translate(-69.778 -229.608)"/>
    <path id="Path_144" data-name="Path 144" class="cls-1" d="M85.357,40.4a5.6,5.6,0,0,1-5.6-5.6c0-.149.006-.3.019-.448a1.9,1.9,0,0,0-1.9-2.052H41.7a1.9,1.9,0,0,0-1.9,2.052A5.6,5.6,0,0,1,34.218,40.4h0A1.908,1.908,0,0,0,32.3,42.3v52.34a1.908,1.908,0,0,0,1.92,1.906h0a5.6,5.6,0,0,1,5.6,5.6c0,.148-.006.3-.019.448a1.9,1.9,0,0,0,1.9,2.052h34.73v3.1H62.923a1.343,1.343,0,0,0,0,2.686H76.431v5.492a2.265,2.265,0,0,0,3.516,1.885l6.074-4.036,6.075,4.036a2.265,2.265,0,0,0,3.516-1.885V97.059a12.464,12.464,0,0,0-2.55-18.283V68.258a1.343,1.343,0,1,0-2.686,0v9.121a12.377,12.377,0,0,0-3.1-.722V42.3A1.908,1.908,0,0,0,85.364,40.4h0m-6.245,74.735V99.475a13.08,13.08,0,0,0,1.989,1.076v13.261Zm5.652-3.756-.976.649V101.361a12.7,12.7,0,0,0,4.459,0v10.666l-.976-.649a2.259,2.259,0,0,0-2.506,0Zm8.157,3.756-1.989-1.322V100.551a13.065,13.065,0,0,0,1.989-1.076Zm2.893-26.056a9.8,9.8,0,1,1-9.873-9.8h.076a9.808,9.808,0,0,1,9.8,9.8ZM42.5,101.961A8.3,8.3,0,0,0,34.987,93.9V43.049A8.3,8.3,0,0,0,42.5,34.987H77.076a8.3,8.3,0,0,0,7.517,8.062V76.677l-.071.01a12.481,12.481,0,0,0-8.091,20.382v4.892Zm0,0" transform="translate(-26.517 -26.518)"/>
    <path id="Path_145" data-name="Path 145" class="cls-1" d="M298.027,307.609a7.484,7.484,0,1,0,7.484,7.484A7.492,7.492,0,0,0,298.027,307.609Zm0,12.282a4.8,4.8,0,1,1,4.8-4.8A4.8,4.8,0,0,1,298.027,319.891Zm0,0" transform="translate(-238.523 -252.534)"/>
    <path id="Path_146" data-name="Path 146" class="cls-1" d="M0,6.406v71.1a6.413,6.413,0,0,0,6.406,6.406H30.139a1.343,1.343,0,1,0,0-2.686H6.406a3.724,3.724,0,0,1-3.72-3.721V6.406a3.724,3.724,0,0,1,3.72-3.72H60.138a3.724,3.724,0,0,1,3.72,3.72V35.473a1.343,1.343,0,1,0,2.686,0V6.406A6.413,6.413,0,0,0,60.138,0H6.406A6.413,6.413,0,0,0,0,6.406Zm0,0"/>
  </g>
</svg>
