<svg xmlns="http://www.w3.org/2000/svg" viewBox="0 0 75.825 91.67">
  <defs>
    <style>
      .cls-1 {
        fill: #fff;
      }
    </style>
  </defs>
  <g id="trophy" transform="translate(-44.248)">
    <g id="Group_64" data-name="Group 64" transform="translate(44.248)">
      <g id="Group_63" data-name="Group 63">
        <path id="Path_147" data-name="Path 147" class="cls-1" d="M115.4,9.616H104.162V9.43h2.508a3.5,3.5,0,0,0,3.492-3.492V3.492A3.5,3.5,0,0,0,106.67,0H85.192a1.343,1.343,0,0,0,0,2.686H106.67a.817.817,0,0,1,.806.806V5.939a.817.817,0,0,1-.806.806H57.652a.817.817,0,0,1-.806-.806V3.492a.817.817,0,0,1,.806-.806H78.924a1.343,1.343,0,0,0,0-2.686H57.652A3.5,3.5,0,0,0,54.16,3.492V5.939A3.5,3.5,0,0,0,57.652,9.43H60.16v.185H48.924a4.681,4.681,0,0,0-4.676,4.676V35.147A19.151,19.151,0,0,0,63.377,54.276h5.7a22,22,0,0,0,5.154,2.845L71.392,70.314H61.012a3.5,3.5,0,0,0-3.492,3.492V88.179a3.5,3.5,0,0,0,3.492,3.492h42.3a3.5,3.5,0,0,0,3.492-3.492V84.126a1.343,1.343,0,1,0-2.686,0v4.053a.817.817,0,0,1-.806.806h-42.3a.817.817,0,0,1-.806-.806V73.806A.817.817,0,0,1,61.012,73h42.3a.817.817,0,0,1,.806.806v4.053a1.343,1.343,0,1,0,2.686,0V73.806a3.5,3.5,0,0,0-3.492-3.492H92.929L90.092,57.122a21.983,21.983,0,0,0,5.154-2.845h5.7a19.151,19.151,0,0,0,19.129-19.129V14.292A4.681,4.681,0,0,0,115.4,9.616ZM60.16,16.653V36.6A21.861,21.861,0,0,0,62.9,47.227a12.105,12.105,0,0,1-11.617-12.08V16.653Zm3.218,34.938A16.462,16.462,0,0,1,46.934,35.147V14.292a1.992,1.992,0,0,1,1.99-1.99H60.16v1.666H49.942A1.343,1.343,0,0,0,48.6,15.31V35.147A14.8,14.8,0,0,0,63.377,49.925h1.275q.661.867,1.4,1.666h-2.68Zm26.8,18.724H74.14L76.8,57.942a22.119,22.119,0,0,0,10.721,0Zm-8.021-14.4A19.339,19.339,0,0,1,62.845,36.6V9.43h38.631V36.6A19.338,19.338,0,0,1,82.161,55.916Zm22-19.316V16.653h8.874V35.147a12.105,12.105,0,0,1-11.617,12.08A21.864,21.864,0,0,0,104.162,36.6Zm-3.218,14.99h-2.68q.743-.8,1.4-1.666h1.275a14.8,14.8,0,0,0,14.778-14.778V15.31a1.343,1.343,0,0,0-1.343-1.343H104.162V12.3H115.4a1.992,1.992,0,0,1,1.99,1.99V35.147h0A16.462,16.462,0,0,1,100.945,51.591Z" transform="translate(-44.248)"/>
      </g>
    </g>
    <g id="Group_66" data-name="Group 66" transform="translate(67.462 79.649)">
      <g id="Group_65" data-name="Group 65" transform="translate(0)">
        <path id="Path_148" data-name="Path 148" class="cls-1" d="M201.958,444.86H175.246a1.343,1.343,0,1,0,0,2.686h26.712a1.343,1.343,0,0,0,0-2.686Z" transform="translate(-173.903 -444.86)"/>
      </g>
    </g>
    <g id="Group_68" data-name="Group 68" transform="translate(69.992 13.969)">
      <g id="Group_67" data-name="Group 67">
        <path id="Path_149" data-name="Path 149" class="cls-1" d="M211.222,85.9l-6.782-.985-3.033-6.146a1.344,1.344,0,0,0-2.408,0l-3.033,6.146-6.782.985a1.344,1.344,0,0,0-.744,2.291l4.907,4.784-1.158,6.754a1.344,1.344,0,0,0,1.949,1.416l6.065-3.189,6.066,3.189a1.344,1.344,0,0,0,1.949-1.416l-1.158-6.754,4.907-4.784A1.344,1.344,0,0,0,211.222,85.9Zm-6.543,5.643a1.342,1.342,0,0,0-.386,1.189l.818,4.768-4.282-2.251a1.343,1.343,0,0,0-1.25,0L195.3,97.5l.818-4.768a1.343,1.343,0,0,0-.386-1.189l-3.465-3.377,4.788-.7a1.343,1.343,0,0,0,1.011-.735l2.141-4.338,2.141,4.338a1.343,1.343,0,0,0,1.011.735l4.788.7Z" transform="translate(-188.034 -78.018)"/>
      </g>
    </g>
  </g>
</svg>
