<svg xmlns="http://www.w3.org/2000/svg" viewBox="0 0 91.671 91.67">
  <defs>
    <style>
      .cls-1 {
        fill: #fff;
      }
    </style>
  </defs>
  <g id="growth" transform="translate(0 -0.001)">
    <g id="Group_70" data-name="Group 70" transform="translate(0 0.001)">
      <g id="Group_69" data-name="Group 69">
        <path id="Path_150" data-name="Path 150" class="cls-1" d="M90.365,62.829h0v0l-5.916-.844a1.521,1.521,0,0,1-.7-2.724L85.689,57.8h4.058a1.521,1.521,0,0,0,1.521-1.521V1.522A1.521,1.521,0,0,0,89.747,0H1.521A1.521,1.521,0,0,0,0,1.522V56.283A1.521,1.521,0,0,0,1.521,57.8H5.455L3.488,59.771a1.521,1.521,0,0,0-.176,1.938l2.89,4.2-5,1.05A1.521,1.521,0,0,0,0,68.452v6.085a1.521,1.521,0,0,0,1.208,1.489l5,1.051-2.89,4.2a1.521,1.521,0,0,0,.176,1.938l4.563,4.563A1.521,1.521,0,0,0,10,87.958l4.2-2.89,1.051,5a1.521,1.521,0,0,0,1.483,1.2h6.085a1.521,1.521,0,0,0,1.489-1.208l1.051-5,4.2,2.9a1.521,1.521,0,0,0,1.938-.176l4.563-4.563a1.521,1.521,0,0,0,.176-1.938l-2.89-4.2,5-1.05a1.521,1.521,0,0,0,1.2-1.489V68.452a1.521,1.521,0,0,0-1.208-1.489l-5-1.051,2.89-4.2a1.521,1.521,0,0,0-.176-1.938L34.095,57.8h6.278L39.156,66.27a1.521,1.521,0,0,0,1.287,1.724l.02,0,5.916.844a1.521,1.521,0,0,1,.7,2.724l-4.788,3.581a1.521,1.521,0,0,0-.3,2.13l5.476,7.3a1.521,1.521,0,0,0,2.13.3l4.781-3.587a1.521,1.521,0,0,1,2.419,1.433l-.846,5.916a1.521,1.521,0,0,0,1.29,1.722h0l9.034,1.29a1.466,1.466,0,0,0,.216.017,1.521,1.521,0,0,0,1.506-1.307l.846-5.916a1.521,1.521,0,0,1,2.723-.7l3.585,4.781a1.521,1.521,0,0,0,2.13.3l7.3-5.476a1.521,1.521,0,0,0,.3-2.13l-3.587-4.781a1.521,1.521,0,0,1,1.433-2.419l5.916.844a1.521,1.521,0,0,0,1.722-1.29h0l1.291-9.034A1.521,1.521,0,0,0,90.365,62.829ZM36.507,69.688V73.3l-3.792.8a3.042,3.042,0,0,0-1.879,4.7l2.172,3.159-2.765,2.765L27.084,82.55a3.042,3.042,0,0,0-4.7,1.879l-.8,3.8H17.968l-.8-3.791a3.042,3.042,0,0,0-4.7-1.88L9.306,84.729,6.541,81.963,8.719,78.8a3.042,3.042,0,0,0-1.879-4.7l-3.8-.8V69.688l3.792-.8a3.042,3.042,0,0,0,1.879-4.7L6.541,61.026l2.765-2.765,3.167,2.172a3.042,3.042,0,0,0,4.7-1.879l.791-3.792h3.614l.8,3.791a3.042,3.042,0,0,0,4.7,1.88l3.159-2.172,2.765,2.765-2.172,3.167a3.042,3.042,0,0,0,1.879,4.7ZM26.266,57.3l-.913.627-1.051-5a1.521,1.521,0,0,0-1.485-1.208H19.775V41.072h6.085V56.283A1.5,1.5,0,0,0,26.266,57.3Zm7.2-25.356a1.521,1.521,0,0,0-1.521,1.521v21.3H28.9V39.551a1.521,1.521,0,0,0-1.521-1.521H18.254a1.521,1.521,0,0,0-1.521,1.521V51.72a1.521,1.521,0,0,0-1.489,1.208l-1.051,5-4.2-2.9a1.491,1.491,0,0,0-.862-.253v-.017H3.042V3.043H88.226V52.734l-4.868-6.491a1.521,1.521,0,0,0-2.13-.3l-4.781,3.587a1.521,1.521,0,0,1-2.419-1.433l.846-5.916A1.5,1.5,0,0,0,74.536,41V13.691a1.521,1.521,0,0,0-1.521-1.521H63.888a1.521,1.521,0,0,0-1.521,1.521V43.679l-.385,2.692a1.509,1.509,0,0,1-2.657.761V21.3A1.521,1.521,0,0,0,57.8,19.776H48.677A1.521,1.521,0,0,0,47.155,21.3V46.776l-.913.685a1.521,1.521,0,0,0-.3,2.13l3.587,4.781a1.521,1.521,0,0,1-1.433,2.419l-3.979-.567V33.466a1.521,1.521,0,0,0-1.521-1.521ZM71.494,15.212V40.159l-6.085-.87V15.212ZM56.282,22.818V43.1l-.608-.812a1.521,1.521,0,0,0-2.13-.3L50.2,44.494V22.818ZM41.071,54.762H34.986V34.987h6.085Zm46.5,16.885-4.411-.63a4.563,4.563,0,0,0-4.3,7.256l2.674,3.566-4.868,3.651-2.673-3.564a4.563,4.563,0,0,0-8.17,2.092l-.63,4.411-6.021-.861.63-4.411a4.563,4.563,0,0,0-7.254-4.3l-3.567,2.674L45.33,76.667l3.563-2.673A4.563,4.563,0,0,0,46.8,65.825l-4.411-.631.861-6.022,4.411.63a4.563,4.563,0,0,0,4.3-7.256l-2.673-3.564,4.868-3.651L56.825,48.9A4.563,4.563,0,0,0,65,46.8l.63-4.411,6.022.861-.63,4.411a4.563,4.563,0,0,0,7.254,4.3l3.566-2.674,3.651,4.868-3.563,2.673a4.563,4.563,0,0,0,2.092,8.169l4.411.631Z" transform="translate(0 -0.001)"/>
      </g>
    </g>
    <g id="Group_72" data-name="Group 72" transform="translate(10.648 62.368)">
      <g id="Group_71" data-name="Group 71">
        <path id="Path_151" data-name="Path 151" class="cls-1" d="M65.127,328a9.127,9.127,0,1,0,9.127,9.127A9.127,9.127,0,0,0,65.127,328Zm0,15.211a6.085,6.085,0,1,1,6.085-6.085A6.085,6.085,0,0,1,65.127,343.212Z" transform="translate(-56 -328.001)"/>
      </g>
    </g>
    <g id="Group_74" data-name="Group 74" transform="translate(53.24 53.241)">
      <g id="Group_73" data-name="Group 73">
        <path id="Path_152" data-name="Path 152" class="cls-1" d="M292.169,280a12.169,12.169,0,1,0,12.169,12.169A12.169,12.169,0,0,0,292.169,280Zm0,21.3a9.127,9.127,0,1,1,9.127-9.127A9.127,9.127,0,0,1,292.169,301.3Z" transform="translate(-280 -280.001)"/>
      </g>
    </g>
    <g id="Group_76" data-name="Group 76" transform="translate(15.963 4.595)">
      <g id="Group_75" data-name="Group 75">
        <path id="Path_153" data-name="Path 153" class="cls-1" d="M129.139,25.682l-7.606-1.521-.608,2.981,3.687.739L83.952,51.72l1.539,2.625L126.678,30.2l-.855,4.273,2.981.6,1.521-7.606A1.521,1.521,0,0,0,129.139,25.682Z" transform="translate(-83.952 -24.161)"/>
      </g>
    </g>
    <g id="Group_78" data-name="Group 78" transform="translate(6.085 41.072)">
      <g id="Group_77" data-name="Group 77">
        <rect id="Rectangle_21" data-name="Rectangle 21" class="cls-1" width="3.042" height="10.648"/>
      </g>
    </g>
    <g id="Group_80" data-name="Group 80" transform="translate(6.085 34.987)">
      <g id="Group_79" data-name="Group 79">
        <rect id="Rectangle_22" data-name="Rectangle 22" class="cls-1" width="3.042" height="3.042"/>
      </g>
    </g>
    <g id="Group_82" data-name="Group 82" transform="translate(82.142 19.776)">
      <g id="Group_81" data-name="Group 81">
        <rect id="Rectangle_23" data-name="Rectangle 23" class="cls-1" width="3.042" height="22.817"/>
      </g>
    </g>
    <g id="Group_84" data-name="Group 84" transform="translate(82.142 13.691)">
      <g id="Group_83" data-name="Group 83">
        <rect id="Rectangle_24" data-name="Rectangle 24" class="cls-1" width="3.042" height="3.042"/>
      </g>
    </g>
    <g id="Group_86" data-name="Group 86" transform="translate(34.986 86.706)">
      <g id="Group_85" data-name="Group 85">
        <rect id="Rectangle_25" data-name="Rectangle 25" class="cls-1" width="3.042" height="3.042"/>
      </g>
    </g>
    <g id="Group_88" data-name="Group 88" transform="translate(41.071 86.706)">
      <g id="Group_87" data-name="Group 87">
        <rect id="Rectangle_26" data-name="Rectangle 26" class="cls-1" width="3.042" height="3.042"/>
      </g>
    </g>
    <g id="Group_90" data-name="Group 90" transform="translate(47.155 86.706)">
      <g id="Group_89" data-name="Group 89">
        <rect id="Rectangle_27" data-name="Rectangle 27" class="cls-1" width="3.042" height="3.042"/>
      </g>
    </g>
  </g>
</svg>
