<svg xmlns="http://www.w3.org/2000/svg" viewBox="0 0 91.371 91.67">
  <defs>
    <style>
      .cls-1 {
        fill: #fff;
      }
    </style>
  </defs>
  <g id="feedback" transform="translate(-0.784)">
    <g id="Group_92" data-name="Group 92" transform="translate(0.784)">
      <g id="Group_91" data-name="Group 91">
        <path id="Path_154" data-name="Path 154" class="cls-1" d="M86.2,9.152H55.695V6.1a6.119,6.119,0,0,0-6.1-6.1H6.885a6.119,6.119,0,0,0-6.1,6.1V39.658c0,16.778,16.016,16.778,21.354,16.778a1.525,1.525,0,0,0,0-3.051,6.119,6.119,0,0,1-6.1-6.1v-.61a6.416,6.416,0,0,1,6.406-5.491H43.492v3.051H29.765a1.441,1.441,0,0,0-1.525,1.525,13.7,13.7,0,0,0,3.661,9.3,14.745,14.745,0,0,0-.61,4.423,15.415,15.415,0,0,0,9.152,14.033c0,.915-.458,2.746-4.576,2.746a7.552,7.552,0,0,0-7.626,7.626v7.626H31.29V83.891a4.531,4.531,0,0,1,4.271-4.576l7.474,3.661a10.591,10.591,0,0,0,1.983.763v7.779h3.051V83.739a7.551,7.551,0,0,0,1.983-.61l7.474-3.661A4.531,4.531,0,0,1,61.8,84.044V91.67h3.051V84.044a7.552,7.552,0,0,0-7.626-7.626c-4.118,0-4.576-1.83-4.576-2.746A15.181,15.181,0,0,0,61.8,59.181V58.114a12.087,12.087,0,0,0-1.525-6.1H70.49A6.416,6.416,0,0,1,76.9,57.5a6.154,6.154,0,0,1-5.491,6.711H70.8a1.525,1.525,0,0,0,0,3.051c5.339,0,21.354,0,21.354-16.778V15.253A5.9,5.9,0,0,0,86.2,9.152ZM22.443,38.132a9.536,9.536,0,0,0-9.457,8.237,9.591,9.591,0,0,0,1.83,6.406C7.343,51.25,3.835,47.132,3.835,39.658V6.1A3.06,3.06,0,0,1,6.885,3.051H49.593A3.06,3.06,0,0,1,52.644,6.1V35.082a3.06,3.06,0,0,1-3.051,3.051Zm9,9.152H48.068a10.672,10.672,0,0,1,10.525,9.152H41.967A10.672,10.672,0,0,1,31.442,47.284ZM50.661,70.926A1.465,1.465,0,0,0,49.593,72.3v.915A5.368,5.368,0,0,0,52.644,78.4l-3.966,1.983a5.574,5.574,0,0,1-4.423,0L40.442,78.4a5.368,5.368,0,0,0,3.051-5.186v-.763a1.465,1.465,0,0,0-1.068-1.373A12.351,12.351,0,0,1,34.34,59.487a9.38,9.38,0,0,1,.153-2.135,13.813,13.813,0,0,0,7.474,2.135H58.745A12.009,12.009,0,0,1,50.661,70.926Zm38.59-20.591c0,7.474-3.508,11.592-10.982,13.118a9.591,9.591,0,0,0,1.83-6.406,9.423,9.423,0,0,0-9.457-8.237H58.288a13.636,13.636,0,0,0-10.219-4.576H46.543V41.183h3.051a6.119,6.119,0,0,0,6.1-6.1V12.2H86.2a3.06,3.06,0,0,1,3.051,3.051Z" transform="translate(-0.784)"/>
      </g>
    </g>
    <g id="Group_94" data-name="Group 94" transform="translate(12.986 6.101)">
      <g id="Group_93" data-name="Group 93">
        <path id="Path_155" data-name="Path 155" class="cls-1" d="M87.663,42.677H86.138a1.441,1.441,0,0,1-1.525-1.525V36.576a4.576,4.576,0,1,0-9.152,0v4.576a1.441,1.441,0,0,1-1.525,1.525,1.441,1.441,0,0,0-1.525-1.525h-6.1a1.441,1.441,0,0,0-1.525,1.525V59.455a1.441,1.441,0,0,0,1.525,1.525h6.1a1.441,1.441,0,0,0,1.525-1.525H87.663a4.494,4.494,0,0,0,4.576-4.576V47.253A4.494,4.494,0,0,0,87.663,42.677ZM70.885,57.93H67.835V44.2h3.051Zm18.3-3.051A1.441,1.441,0,0,1,87.663,56.4H73.936V45.728a4.494,4.494,0,0,0,4.576-4.576V36.576a1.525,1.525,0,1,1,3.051,0v4.576a4.494,4.494,0,0,0,4.576,4.576h1.525a1.441,1.441,0,0,1,1.525,1.525Z" transform="translate(-64.784 -32)"/>
      </g>
    </g>
    <g id="Group_96" data-name="Group 96" transform="translate(58.745 15.253)">
      <g id="Group_95" data-name="Group 95">
        <path id="Path_156" data-name="Path 156" class="cls-1" d="M330.714,80h-6.1a1.441,1.441,0,0,0-1.525,1.525H309.36a4.494,4.494,0,0,0-4.576,4.576v7.626A4.494,4.494,0,0,0,309.36,98.3h1.525a1.441,1.441,0,0,1,1.525,1.525V104.4a4.576,4.576,0,1,0,9.152,0V99.829a1.441,1.441,0,0,1,1.525-1.525,1.441,1.441,0,0,0,1.525,1.525h6.1a1.441,1.441,0,0,0,1.525-1.525V81.525A1.441,1.441,0,0,0,330.714,80Zm-7.626,15.253a4.494,4.494,0,0,0-4.576,4.576V104.4a1.525,1.525,0,1,1-3.051,0V99.829a4.494,4.494,0,0,0-4.576-4.576H309.36a1.441,1.441,0,0,1-1.525-1.525V86.1a1.441,1.441,0,0,1,1.525-1.525h13.728Zm6.1,1.525h-3.051V83.051h3.051Z" transform="translate(-304.784 -80)"/>
      </g>
    </g>
    <g id="Group_98" data-name="Group 98" transform="translate(57.22 39.658)">
      <g id="Group_97" data-name="Group 97">
        <rect id="Rectangle_28" data-name="Rectangle 28" class="cls-1" width="6.101" height="3.051"/>
      </g>
    </g>
    <g id="Group_100" data-name="Group 100" transform="translate(37.391 6.101)">
      <g id="Group_99" data-name="Group 99">
        <path id="Path_157" data-name="Path 157" class="cls-1" d="M197.36,33.525V32h-3.051v1.525h-1.525v3.051h1.525V38.1h3.051V36.576h1.525V33.525Z" transform="translate(-192.784 -32)"/>
      </g>
    </g>
  </g>
</svg>
