<svg xmlns="http://www.w3.org/2000/svg" viewBox="0 0 18.431 18.39">
  <defs>
    <style>
      .cls-1 {
        fill: #9fa9bc;
      }
    </style>
  </defs>
  <g id="call-answer" transform="translate(0 -0.394)">
    <g id="Group_13" data-name="Group 13" transform="translate(0 0.394)">
      <g id="Group_12" data-name="Group 12" transform="translate(0 0)">
        <path id="Path_125" data-name="Path 125" class="cls-1" d="M18.018,14.939l-2.846-2.847a1.484,1.484,0,0,0-2.093.039l-1.434,1.434-.283-.157a14.271,14.271,0,0,1-3.449-2.495,14.35,14.35,0,0,1-2.5-3.456c-.053-.1-.1-.189-.154-.276l.962-.961.473-.474a1.483,1.483,0,0,0,.038-2.093L3.886.807A1.483,1.483,0,0,0,1.793.846l-.8.807.022.022A4.639,4.639,0,0,0,.352,2.841,4.834,4.834,0,0,0,.058,4.023C-.318,7.139,1.106,9.987,4.97,13.851c5.342,5.341,9.646,4.938,9.832,4.918a4.81,4.81,0,0,0,1.186-.3,4.623,4.623,0,0,0,1.162-.658l.018.016.813-.8A1.486,1.486,0,0,0,18.018,14.939Z" transform="translate(0 -0.394)"/>
      </g>
    </g>
  </g>
</svg>
