<svg xmlns="http://www.w3.org/2000/svg" width="16" height="14.868" viewBox="0 0 16 14.868">
  <g id="eye-alt" transform="translate(0 -18.111)">
    <g id="Group_246" data-name="Group 246" transform="translate(7.509 18.111)">
      <g id="Group_245" data-name="Group 245">
        <path id="Path_230" data-name="Path 230" d="M241.491,18.111A.49.49,0,0,0,241,18.6v1.472a.491.491,0,1,0,.981,0V18.6A.49.49,0,0,0,241.491,18.111Z" transform="translate(-241 -18.111)" fill="#9fa9bc"/>
      </g>
    </g>
    <g id="Group_248" data-name="Group 248" transform="translate(3.758 20.073)">
      <g id="Group_247" data-name="Group 247" transform="translate(0 0)">
        <path id="Path_231" data-name="Path 231" d="M122.819,79.236l-.981-.981a.491.491,0,0,0-.694.694l.981.981a.491.491,0,0,0,.694-.694Z" transform="translate(-121.001 -78.111)" fill="#9fa9bc"/>
      </g>
    </g>
    <g id="Group_250" data-name="Group 250" transform="translate(10.28 20.073)">
      <g id="Group_249" data-name="Group 249" transform="translate(0 0)">
        <path id="Path_232" data-name="Path 232" d="M332.819,78.254a.49.49,0,0,0-.694,0l-.981.981a.491.491,0,0,0,.694.694l.981-.981A.49.49,0,0,0,332.819,78.254Z" transform="translate(-331.001 -78.111)" fill="#9fa9bc"/>
      </g>
    </g>
    <g id="Group_252" data-name="Group 252" transform="translate(14.005 24.287)">
      <g id="Group_251" data-name="Group 251" transform="translate(0 0)">
        <path id="Path_233" data-name="Path 233" d="M452.5,228.111H451v6.868h1.5a.49.49,0,0,0,.491-.491V228.6A.49.49,0,0,0,452.5,228.111Z" transform="translate(-451 -228.111)" fill="#9fa9bc"/>
      </g>
    </g>
    <g id="Group_254" data-name="Group 254" transform="translate(0 24.287)">
      <g id="Group_253" data-name="Group 253" transform="translate(0 0)">
        <path id="Path_234" data-name="Path 234" d="M.491,228.111A.49.49,0,0,0,0,228.6v5.887a.49.49,0,0,0,.491.491h1.5v-6.868Z" transform="translate(0 -228.111)" fill="#9fa9bc"/>
      </g>
    </g>
    <g id="Group_256" data-name="Group 256" transform="translate(5.14 24.772)">
      <g id="Group_255" data-name="Group 255" transform="translate(0 0)">
        <path id="Path_235" data-name="Path 235" d="M174.421,243.111a.976.976,0,0,0-.878.542l-1.493,2.987a1.955,1.955,0,0,0,2.539-.922l.323-.646h.949a.988.988,0,0,1,.694.287L180.192,249v-5.887Z" transform="translate(-172.05 -243.111)" fill="#9fa9bc"/>
      </g>
    </g>
    <g id="Group_258" data-name="Group 258" transform="translate(2.65 22.325)">
      <g id="Group_257" data-name="Group 257">
        <path id="Path_236" data-name="Path 236" d="M97.462,173.506h-.343l-.028.057a2.988,2.988,0,0,1-2.4,1.665,3.553,3.553,0,0,1-1.911-.44.494.494,0,0,1-.24-.668l1.726-3.453a1.963,1.963,0,0,1,1.756-1.085h2.117a2.372,2.372,0,0,0,.22-.981.49.49,0,0,0-.491-.491H94.059a1.472,1.472,0,0,0-1.317.814l-.439.877a.491.491,0,0,1-.439.271H91v6.868h2.25l1.39,1.39a1.455,1.455,0,0,0,1.484.363l4.189-1.317a1.419,1.419,0,0,0,.634-.385Z" transform="translate(-91 -168.11)" fill="#9fa9bc"/>
      </g>
    </g>
  </g>
</svg>
