<svg xmlns="http://www.w3.org/2000/svg" width="13.096" height="16" viewBox="0 0 13.096 16">
  <g id="file" transform="translate(-86.9)">
    <path id="Path_227" data-name="Path 227" d="M208.063,108.4h-.468v11.494a1.387,1.387,0,0,1-1.385,1.385H197.7v.426a.884.884,0,0,0,.884.884h9.477a.884.884,0,0,0,.884-.884V109.284A.883.883,0,0,0,208.063,108.4Z" transform="translate(-108.949 -106.589)" fill="#9fa9bc"/>
    <path id="Path_228" data-name="Path 228" d="M92.521,14.189h4.739a.884.884,0,0,0,.884-.884V.884A.884.884,0,0,0,97.259,0H90.945V.292a.859.859,0,0,1,.005.094V2.807a1.246,1.246,0,0,1-1.245,1.245H87.284c-.025,0-.052,0-.077,0H86.9V13.3a.884.884,0,0,0,.884.884h4.737Zm.179-3H89.61a.418.418,0,1,1,0-.835H92.7a.418.418,0,1,1,0,.835Zm3.091-2.132H89.61a.418.418,0,1,1,0-.835h6.18a.418.418,0,1,1,0,.835Zm-6.18-3.1h6.18a.418.418,0,1,1,0,.835H89.61a.418.418,0,1,1,0-.835Z" fill="#9fa9bc"/>
    <path id="Path_229" data-name="Path 229" d="M87.919,4.337h2.428a.742.742,0,0,0,.735-.735V1.173A.372.372,0,0,0,90.708.8a.362.362,0,0,0-.261.11L87.655,3.7A.372.372,0,0,0,87.919,4.337Z" transform="translate(-0.635 -0.787)" fill="#9fa9bc"/>
  </g>
</svg>
