<svg xmlns="http://www.w3.org/2000/svg" width="22.244" height="22.188" viewBox="0 0 22.244 22.188">
  <g id="kalendir" transform="translate(0 0)">
    <g id="calendar">
      <g id="Group_5" data-name="Group 5">
        <g id="Group_4" data-name="Group 4">
          <path id="Path_2" data-name="Path 2" d="M19.637,1.733H18.595V0H16.857V1.733H5.387V0H3.649V1.733H2.607A2.606,2.606,0,0,0,0,4.334V19.588a2.606,2.606,0,0,0,2.607,2.6H19.637a2.606,2.606,0,0,0,2.607-2.6V4.334A2.606,2.606,0,0,0,19.637,1.733Zm.869,17.855a.869.869,0,0,1-.869.867H2.607a.869.869,0,0,1-.869-.867V8.147H20.506Zm0-13.174H1.738V4.334a.869.869,0,0,1,.869-.867H3.649V5.2H5.387V3.467h11.47V5.2h1.738V3.467h1.043a.869.869,0,0,1,.869.867Z" fill="#0061ff"/>
        </g>
      </g>
      <g id="Group_7" data-name="Group 7" transform="translate(2.919 10.065)">
        <g id="Group_6" data-name="Group 6">
          <rect id="Rectangle_5" data-name="Rectangle 5" width="1.536" height="1.533" fill="#0061ff"/>
        </g>
      </g>
      <g id="Group_9" data-name="Group 9" transform="translate(6.844 10.065)">
        <g id="Group_8" data-name="Group 8">
          <rect id="Rectangle_6" data-name="Rectangle 6" width="1.536" height="1.533" fill="#0061ff"/>
        </g>
      </g>
      <g id="Group_11" data-name="Group 11" transform="translate(10.354 10.065)">
        <g id="Group_10" data-name="Group 10">
          <rect id="Rectangle_7" data-name="Rectangle 7" width="1.536" height="1.533" fill="#0061ff"/>
        </g>
      </g>
      <g id="Group_13" data-name="Group 13" transform="translate(13.864 10.065)">
        <g id="Group_12" data-name="Group 12">
          <rect id="Rectangle_8" data-name="Rectangle 8" width="1.536" height="1.533" fill="#0061ff"/>
        </g>
      </g>
      <g id="Group_15" data-name="Group 15" transform="translate(17.788 10.065)">
        <g id="Group_14" data-name="Group 14">
          <rect id="Rectangle_9" data-name="Rectangle 9" width="1.536" height="1.533" fill="#0061ff"/>
        </g>
      </g>
      <g id="Group_17" data-name="Group 17" transform="translate(2.919 13.566)">
        <g id="Group_16" data-name="Group 16">
          <rect id="Rectangle_10" data-name="Rectangle 10" width="1.536" height="1.533" fill="#0061ff"/>
        </g>
      </g>
      <g id="Group_19" data-name="Group 19" transform="translate(6.844 13.566)">
        <g id="Group_18" data-name="Group 18">
          <rect id="Rectangle_11" data-name="Rectangle 11" width="1.536" height="1.533" fill="#0061ff"/>
        </g>
      </g>
      <g id="Group_21" data-name="Group 21" transform="translate(10.354 13.566)">
        <g id="Group_20" data-name="Group 20">
          <rect id="Rectangle_12" data-name="Rectangle 12" width="1.536" height="1.533" fill="#0061ff"/>
        </g>
      </g>
      <g id="Group_23" data-name="Group 23" transform="translate(13.864 13.566)">
        <g id="Group_22" data-name="Group 22">
          <rect id="Rectangle_13" data-name="Rectangle 13" width="1.536" height="1.533" fill="#0061ff"/>
        </g>
      </g>
      <g id="Group_25" data-name="Group 25" transform="translate(2.919 17.067)">
        <g id="Group_24" data-name="Group 24">
          <rect id="Rectangle_14" data-name="Rectangle 14" width="1.536" height="1.533" fill="#0061ff"/>
        </g>
      </g>
      <g id="Group_27" data-name="Group 27" transform="translate(6.844 17.067)">
        <g id="Group_26" data-name="Group 26">
          <rect id="Rectangle_15" data-name="Rectangle 15" width="1.536" height="1.533" fill="#0061ff"/>
        </g>
      </g>
      <g id="Group_29" data-name="Group 29" transform="translate(10.354 17.067)">
        <g id="Group_28" data-name="Group 28">
          <rect id="Rectangle_16" data-name="Rectangle 16" width="1.536" height="1.533" fill="#0061ff"/>
        </g>
      </g>
      <g id="Group_31" data-name="Group 31" transform="translate(13.864 17.067)">
        <g id="Group_30" data-name="Group 30">
          <rect id="Rectangle_17" data-name="Rectangle 17" width="1.536" height="1.533" fill="#0061ff"/>
        </g>
      </g>
      <g id="Group_33" data-name="Group 33" transform="translate(17.788 13.566)">
        <g id="Group_32" data-name="Group 32">
          <rect id="Rectangle_18" data-name="Rectangle 18" width="1.536" height="1.533" fill="#0061ff"/>
        </g>
      </g>
    </g>
  </g>
</svg>
