<svg xmlns="http://www.w3.org/2000/svg" viewBox="0 0 12.922 14">
  <defs>
    <style>
      .cls-1 {
        fill: #0061ff;
      }
    </style>
  </defs>
  <g id="thumbs-up" transform="translate(-18.283)">
    <path id="Path_24" data-name="Path 24" class="cls-1" d="M30.793,7.825a2.432,2.432,0,0,0,.412-1.371,2.183,2.183,0,0,0-2.154-2.146H27.571a3.694,3.694,0,0,0,.4-1.615,3.491,3.491,0,0,0-.295-1.565,1.849,1.849,0,0,0-.858-.854A2.874,2.874,0,0,0,25.552,0a1.067,1.067,0,0,0-.757.311,2.023,2.023,0,0,0-.522.909q-.16.555-.257,1.064a1.428,1.428,0,0,1-.3.719q-.412.446-.9,1.077a7.441,7.441,0,0,1-1.153,1.3H19.36a1.077,1.077,0,0,0-1.077,1.077v5.384a1.077,1.077,0,0,0,1.077,1.077h2.423a6.221,6.221,0,0,1,1.161.337q1.035.362,1.821.551A6.789,6.789,0,0,0,26.36,14h1.085a2.682,2.682,0,0,0,1.91-.677,2.383,2.383,0,0,0,.715-1.847,2.368,2.368,0,0,0,.5-1.5,2.545,2.545,0,0,0-.025-.362,2.416,2.416,0,0,0,.32-1.211A2.2,2.2,0,0,0,30.793,7.825ZM20.277,11.686a.528.528,0,1,1,.16-.379A.518.518,0,0,1,20.277,11.686Zm9.671-4.543q-.181.387-.45.4a1.136,1.136,0,0,1,.21.4,1.513,1.513,0,0,1,.084.467,1.33,1.33,0,0,1-.446,1,1.163,1.163,0,0,1,.151.58,1.417,1.417,0,0,1-.147.618.938.938,0,0,1-.4.441,2.877,2.877,0,0,1,.042.471q0,1.4-1.615,1.4H26.36a9.3,9.3,0,0,1-2.877-.614q-.042-.017-.244-.088l-.3-.105q-.1-.034-.294-.1t-.32-.093q-.122-.029-.278-.055a1.7,1.7,0,0,0-.265-.025h-.269V6.462h.269a.723.723,0,0,0,.3-.076,1.422,1.422,0,0,0,.337-.227q.173-.151.324-.3a4.787,4.787,0,0,0,.337-.37q.185-.223.29-.358t.265-.345q.16-.21.194-.252.463-.572.648-.766a2.137,2.137,0,0,0,.5-.921q.156-.56.256-1.056a1.392,1.392,0,0,1,.32-.715,1.224,1.224,0,0,1,1.077.4,2.2,2.2,0,0,1,.269,1.22,3.437,3.437,0,0,1-.4,1.35,3.432,3.432,0,0,0-.4,1.342h2.961a1.116,1.116,0,0,1,1.077,1.077A1.653,1.653,0,0,1,29.948,7.143Z"/>
  </g>
</svg>
