<svg xmlns="http://www.w3.org/2000/svg" width="20.027" height="15.021" viewBox="0 0 20.027 15.021">
  <g id="mail-black-envelope-symbol" transform="translate(0 -60.651)">
    <path id="Path_223" data-name="Path 223" d="M20.027,73.168a2.481,2.481,0,0,1-.321,1.2L13.383,67.3l6.255-5.472a2.485,2.485,0,0,1,.39,1.33V73.168ZM10.014,68.582l8.7-7.615a2.472,2.472,0,0,0-1.193-.315H2.5a2.463,2.463,0,0,0-1.192.315Zm2.426-.461-2.015,1.764a.628.628,0,0,1-.824,0L7.587,68.121l-6.4,7.165a2.473,2.473,0,0,0,1.32.385H17.524a2.473,2.473,0,0,0,1.32-.385ZM.39,61.825A2.485,2.485,0,0,0,0,63.155V73.168a2.473,2.473,0,0,0,.321,1.2L6.644,67.3Z" fill="#9fa9bc"/>
  </g>
</svg>
