<svg xmlns="http://www.w3.org/2000/svg" width="16.017" height="16.004" viewBox="0 0 16.017 16.004">
  <g id="Group_242" data-name="Group 242" transform="translate(0 0)">
    <path id="XMLID_38_" d="M16.017,7.443a.571.571,0,0,0-.477-.562L14.051,6.63a6.179,6.179,0,0,0-.669-1.61l.875-1.228a.571.571,0,0,0-.062-.738l-.529-.529L13.137,2a.594.594,0,0,0-.735-.046l-1.228.878a6.17,6.17,0,0,0-1.61-.666L9.31.677A.573.573,0,0,0,8.748.2H7.259A.571.571,0,0,0,6.7.677L6.446,2.169A5.828,5.828,0,0,0,4.8,2.861L3.582,2a.571.571,0,0,0-.738.062l-.522.522-.529.529a.579.579,0,0,0-.062.738l.882,1.241A6.281,6.281,0,0,0,1.956,6.7L.477,6.933A.573.573,0,0,0,0,7.495V8.984a.571.571,0,0,0,.477.562l1.5.251a6.136,6.136,0,0,0,.676,1.6l-.865,1.221a.571.571,0,0,0,.062.738l.529.529.529.529a.579.579,0,0,0,.738.062l1.241-.882a6.281,6.281,0,0,0,1.61.656l.248,1.476A.573.573,0,0,0,7.3,16.2H8.794a.571.571,0,0,0,.562-.477l.251-1.5a6.2,6.2,0,0,0,1.567-.653l1.228.875a.571.571,0,0,0,.738-.062l.529-.529.529-.529a.579.579,0,0,0,.062-.738l-.878-1.228a6.17,6.17,0,0,0,.666-1.61L15.537,9.5a.573.573,0,0,0,.477-.562V8.194Zm-5.505,3.171a3.473,3.473,0,1,1,0-4.911A3.472,3.472,0,0,1,10.511,10.613Z" transform="translate(0 -0.2)" fill="#9fa9bc"/>
    <ellipse id="XMLID_18_" cx="2.051" cy="2.051" rx="2.051" ry="2.051" transform="translate(6.005 5.91)" fill="#9fa9bc"/>
  </g>
</svg>
