<svg xmlns="http://www.w3.org/2000/svg" width="17.706" height="22.075" viewBox="0 0 17.706 22.075">
  <g id="placeholder" transform="translate(-47.2)">
    <g id="Group_148" data-name="Group 148" transform="translate(47.2)">
      <path id="Path_167" data-name="Path 167" d="M56.048,0A8.86,8.86,0,0,0,47.2,8.848a8.709,8.709,0,0,0,.157,1.661c0,.032.023.13.06.3a8.714,8.714,0,0,0,.592,1.745c.953,2.245,3.05,5.692,7.65,9.385a.627.627,0,0,0,.787,0c4.6-3.693,6.7-7.141,7.65-9.385a8.616,8.616,0,0,0,.592-1.745c.037-.167.056-.264.06-.3a9.1,9.1,0,0,0,.157-1.661A8.874,8.874,0,0,0,56.048,0Zm7.46,10.292c0,.009,0,.019,0,.028s-.019.093-.042.2v.009a7.347,7.347,0,0,1-.514,1.509s0,.014-.009.019a23.149,23.149,0,0,1-6.891,8.589,23.149,23.149,0,0,1-6.891-8.589s0-.014-.009-.019a7.837,7.837,0,0,1-.514-1.509v-.009c-.028-.106-.037-.176-.042-.2s0-.019,0-.032a7.6,7.6,0,1,1,14.92,0Z" transform="translate(-47.2)" fill="#fff"/>
      <path id="Path_168" data-name="Path 168" d="M122.618,71.9a5.618,5.618,0,1,0,5.618,5.618A5.627,5.627,0,0,0,122.618,71.9Z" transform="translate(-113.77 -68.573)" fill="#fff"/>
    </g>
  </g>
</svg>
