<svg xmlns="http://www.w3.org/2000/svg" viewBox="0 0 13.643 13">
  <defs>
    <style>
      .cls-1 {
        fill: #ffa000;
      }
    </style>
  </defs>
  <path id="star" class="cls-1" d="M13.631,6.266a.245.245,0,0,0-.2-.166L9.016,5.457l-1.976-4a.244.244,0,0,0-.438,0l-1.976,4L.209,6.1a.244.244,0,0,0-.136.416l3.2,3.116-.755,4.4a.245.245,0,0,0,.1.239.242.242,0,0,0,.257.019l3.952-2.077,3.951,2.077a.244.244,0,0,0,.354-.257l-.755-4.4,3.2-3.116A.244.244,0,0,0,13.631,6.266Z" transform="translate(0 -1.318)"/>
</svg>
