<svg xmlns="http://www.w3.org/2000/svg" width="15.201" height="16" viewBox="0 0 15.201 16">
  <g id="user" transform="translate(-12.244 0)">
    <path id="Path_224" data-name="Path 224" d="M26.123,12.08a25.423,25.423,0,0,0-3.672-2.249.136.136,0,0,1-.078-.124V8.218A3.323,3.323,0,0,0,22.8,7.05c.166-.013.382-.245.617-1.074.32-1.133-.02-1.3-.307-1.273a2.743,2.743,0,0,0,.124-.467c.49-2.934-.956-3.036-.956-3.036a2.215,2.215,0,0,0-.871-.809A2.936,2.936,0,0,0,19.624.013a2.646,2.646,0,0,0-.712.137h0a3.287,3.287,0,0,0-.783.4,4.109,4.109,0,0,0-.806.666,3.256,3.256,0,0,0-.871,1.528,3.336,3.336,0,0,0,.007,1.492h0a3.19,3.19,0,0,0,.124.467c-.287-.026-.63.14-.307,1.273.235.829.454,1.061.617,1.074a3.518,3.518,0,0,0,.431,1.182V9.707a.136.136,0,0,1-.078.124,25.1,25.1,0,0,0-3.672,2.249,3.316,3.316,0,0,0-1.328,2.66v.4A.859.859,0,0,0,13.1,16H26.586a.859.859,0,0,0,.858-.858v-.4A3.269,3.269,0,0,0,26.123,12.08Z" transform="translate(0)" fill="#9fa9bc"/>
  </g>
</svg>
