<svg xmlns="http://www.w3.org/2000/svg" xmlns:xlink="http://www.w3.org/1999/xlink" viewBox="0 0 30 30">
  <defs>
    <style>
      .cls-1 {
        fill: #fff;
        stroke: #707070;
      }

      .cls-2 {
        clip-path: url(#clip-path);
      }

      .cls-3 {
        fill: #0061ff;
      }
    </style>
    <clipPath id="clip-path">
      <rect id="Rectangle_6" data-name="Rectangle 6" class="cls-1" width="30" height="30" transform="translate(0)"/>
    </clipPath>
  </defs>
  <g id="Mask_Group_2" data-name="Mask Group 2" class="cls-2" transform="translate(0 0)">
    <g id="courier" transform="translate(0.348 0.371)">
      <g id="Group_33" data-name="Group 33" transform="translate(0 0)">
        <g id="Group_32" data-name="Group 32">
          <g id="plug">
            <g id="Group_31" data-name="Group 31">
              <path id="Path_134" data-name="Path 134" class="cls-3" d="M27.851,8.086a13.15,13.15,0,0,0-6.9-6.728,14.986,14.986,0,0,0-14.371,1.1,14.648,14.648,0,0,0,6.9,26.828,1.449,1.449,0,0,0,.161.006,2.057,2.057,0,0,0,1.4-.553,2.116,2.116,0,0,0,.678-1.547V22.677a.985.985,0,0,0-.018-.19.985.985,0,0,0,.018-.19,1.074,1.074,0,0,0-1.071-1.071A4.928,4.928,0,0,1,9.726,16.3V13.053h9.851V16.3A4.943,4.943,0,0,1,18,19.911a1.069,1.069,0,0,0,1.451,1.57,7.082,7.082,0,0,0,2.26-5.181V11.982a1.074,1.074,0,0,0-1.071-1.071H18.309V7.4a1.071,1.071,0,1,0-2.141,0v3.51H13.122V7.4a1.071,1.071,0,0,0-2.141,0v3.51H8.649a1.074,1.074,0,0,0-1.071,1.071V16.3a7.087,7.087,0,0,0,6,6.989V27.15a12.507,12.507,0,0,1-5.818-22.9,12.89,12.89,0,0,1,12.349-.916,10.99,10.99,0,0,1,5.782,5.633,12.8,12.8,0,0,1-2.915,15.056,1.07,1.07,0,1,0,1.428,1.594,14.574,14.574,0,0,0,4.545-7.721A15.586,15.586,0,0,0,27.851,8.086Z" transform="translate(0 -0.033)"/>
            </g>
          </g>
        </g>
      </g>
    </g>
  </g>
</svg>
